<svg xmlns="http://www.w3.org/2000/svg" viewBox="0 0 64 64">
  <defs>
    <linearGradient id="carGradient" x1="0%" y1="0%" x2="100%" y2="100%">
      <stop offset="0%" style="stop-color:#667eea;stop-opacity:1" />
      <stop offset="100%" style="stop-color:#764ba2;stop-opacity:1" />
    </linearGradient>
  </defs>
  
  <!-- Car Body -->
  <path d="M 12 32 L 16 24 L 20 22 L 44 22 L 48 24 L 52 32 L 52 42 L 50 44 L 14 44 L 12 42 Z" 
        fill="url(#carGradient)" stroke="#fff" stroke-width="1.5"/>
  
  <!-- Car Roof -->
  <path d="M 20 22 L 24 16 L 40 16 L 44 22 Z" 
        fill="url(#carGradient)" stroke="#fff" stroke-width="1.5" opacity="0.9"/>
  
  <!-- Windows -->
  <rect x="22" y="18" width="8" height="6" fill="#e0e7ff" rx="1" opacity="0.8"/>
  <rect x="34" y="18" width="8" height="6" fill="#e0e7ff" rx="1" opacity="0.8"/>
  
  <!-- Front Light -->
  <circle cx="50" cy="32" r="2" fill="#fbbf24" opacity="0.9"/>
  
  <!-- Back Light -->
  <circle cx="14" cy="32" r="2" fill="#ef4444" opacity="0.9"/>
  
  <!-- Wheels -->
  <circle cx="20" cy="44" r="6" fill="#1f2937" stroke="#fff" stroke-width="1.5"/>
  <circle cx="20" cy="44" r="3" fill="#6b7280"/>
  
  <circle cx="44" cy="44" r="6" fill="#1f2937" stroke="#fff" stroke-width="1.5"/>
  <circle cx="44" cy="44" r="3" fill="#6b7280"/>
  
  <!-- Bottom Shadow -->
  <ellipse cx="32" cy="50" rx="18" ry="3" fill="#000" opacity="0.2"/>
</svg>